 <svg  version="1.0" xmlns="http://www.w3.org/2000/svg"  width="900.000000pt" height="897.000000pt" viewBox="0 0 900.000000 897.000000"  preserveAspectRatio="xMidYMid meet">  <g transform="translate(0.000000,897.000000) scale(0.100000,-0.100000)" fill="#ff6600" stroke="none"> <path d="M4265 7839 c-129 -11 -242 -25 -330 -39 -68 -11 -91 -16 -220 -46 -33 -8 -76 -18 -95 -23 -49 -11 -209 -60 -245 -76 -16 -7 -48 -19 -70 -28 -22 -8 -60 -22 -85 -32 -135 -52 -392 -187 -595 -315 -272 -170 -675 -549 -865 -813 -19 -27 -47 -63 -61 -80 -14 -18 -43 -60 -65 -95 -21 -35 -47 -75 -56 -90 -10 -15 -21 -34 -25 -42 -3 -8 -18 -33 -31 -55 -49 -77 -172 -334 -207 -431 -20 -55 -41 -110 -47 -124 -13 -31 -34 -99 -54 -170 -44 -159 -77 -289 -81 -320 -2 -19 -10 -87 -18 -150 -32 -256 -47 -500 -35 -595 6 -49 15 -144 20 -210 11 -143 33 -311 50 -380 22 -90 37 -149 49 -195 7 -25 16 -61 20 -80 8 -35 34 -109 93 -265 51 -138 151 -338 242 -488 22 -37 46 -76 51 -85 29 -48 130 -193 212 -305 73 -100 438 -471 527 -538 179 -132 219 -161 281 -200 224 -145 575 -324 690 -352 11 -3 45 -15 75 -27 65 -25 150 -52 240 -75 36 -10 85 -23 110 -30 25 -8 89 -21 143 -29 53 -9 141 -24 195 -33 77 -13 164 -16 427 -16 337 0 337 0 564 45 30 5 77 14 105 18 47 7 211 48 331 84 28 8 95 31 150 51 55 20 111 40 125 45 79 25 348 158 435 214 39 25 88 55 110 67 45 25 143 91 225 154 30 23 73 53 96 68 101 63 477 458 594 625 22 31 56 77 75 102 28 38 69 101 138 215 7 11 23 38 37 60 14 22 40 72 59 110 129 275 141 302 156 354 7 25 27 84 44 131 32 86 57 166 71 230 4 19 17 69 29 111 11 43 25 116 30 163 6 48 13 91 17 98 4 6 13 115 20 242 14 255 5 552 -22 685 -7 40 -14 87 -14 103 0 27 -7 62 -41 203 -10 43 -49 189 -73 270 -7 28 -26 76 -40 109 -14 32 -26 65 -26 72 0 52 -193 444 -296 601 -19 28 -34 54 -34 58 0 4 -33 49 -72 101 -40 52 -82 107 -93 122 -109 147 -383 431 -521 542 -90 72 -275 208 -305 225 -10 5 -67 40 -126 77 -138 85 -470 248 -506 248 -5 0 -25 7 -45 16 -77 33 -98 41 -132 53 -45 16 -135 41 -180 51 -56 12 -131 31 -184 46 -26 8 -65 14 -86 14 -21 0 -65 7 -98 15 -114 30 -579 50 -757 34z m535 -450 c36 -5 99 -14 141 -19 42 -4 94 -13 115 -18 21 -6 75 -18 119 -27 44 -9 98 -23 120 -31 23 -8 48 -14 57 -14 8 0 51 -14 94 -30 44 -17 115 -45 159 -61 44 -17 121 -51 170 -75 50 -24 93 -44 97 -44 4 0 47 -23 95 -52 48 -28 97 -57 108 -63 96 -52 283 -193 404 -304 47 -44 96 -87 107 -98 65 -55 239 -258 342 -397 46 -61 74 -104 174 -264 30 -49 175 -346 193 -397 10 -27 29 -78 42 -113 47 -121 98 -334 132 -547 18 -110 21 -173 21 -405 -1 -151 -5 -295 -10 -320 -5 -25 -14 -85 -20 -135 -15 -126 -82 -408 -120 -505 -12 -30 -25 -68 -29 -85 -4 -16 -26 -68 -48 -115 -22 -47 -55 -116 -73 -155 -54 -114 -225 -394 -260 -425 -5 -5 -22 -29 -60 -85 -19 -27 -102 -124 -195 -224 -252 -274 -502 -460 -852 -635 -132 -66 -155 -75 -288 -121 -38 -13 -95 -33 -125 -45 -30 -11 -73 -25 -95 -30 -22 -5 -83 -20 -135 -33 -91 -24 -189 -42 -370 -68 -115 -17 -531 -18 -640 -1 -326 50 -563 112 -754 196 -32 14 -63 26 -68 26 -12 0 -322 153 -360 178 -15 9 -55 35 -90 56 -196 123 -424 319 -598 515 -36 40 -70 78 -75 84 -55 60 -284 384 -324 457 -77 141 -155 308 -203 435 -35 92 -88 255 -88 271 0 8 -6 36 -14 62 -13 43 -24 101 -56 292 -32 198 -30 595 4 835 20 134 24 153 96 430 24 93 120 333 169 425 13 25 37 70 53 100 16 30 33 62 38 70 5 8 30 51 56 95 122 213 447 588 651 751 125 100 297 224 310 224 2 0 28 15 56 34 29 19 120 67 202 106 177 85 198 94 340 147 22 8 55 21 73 29 18 8 40 14 50 14 9 0 37 6 62 14 114 37 322 76 525 100 73 8 516 5 575 -5z"/> <path d="M5130 6184 c-25 -7 -63 -14 -86 -14 -22 0 -60 -6 -85 -14 -24 -7 -71 -22 -104 -31 -170 -50 -348 -138 -532 -262 -336 -226 -469 -288 -719 -333 -126 -22 -448 -29 -515 -10 -20 6 -67 15 -105 20 -38 5 -100 18 -139 29 -133 37 -158 37 -230 2 -96 -48 -138 -131 -114 -227 12 -47 78 -134 102 -134 6 0 18 -6 26 -13 9 -8 52 -22 96 -31 44 -10 107 -24 140 -31 142 -32 246 -40 485 -40 240 1 308 7 420 40 260 76 434 151 589 253 47 32 93 62 103 67 9 6 60 40 115 76 189 127 338 186 591 233 170 33 548 17 692 -29 161 -50 271 -45 337 17 27 25 63 117 63 156 -2 78 -82 184 -149 198 -14 3 -48 11 -76 19 -80 23 -188 45 -216 45 -15 0 -46 7 -69 15 -60 21 -553 21 -620 -1z"/> <path d="M5270 5001 c-138 -14 -296 -55 -470 -121 -30 -12 -66 -25 -80 -30 -55 -18 -241 -120 -350 -191 -221 -146 -432 -258 -545 -290 -189 -54 -181 -52 -426 -80 -142 -17 -392 7 -549 51 -41 11 -91 25 -110 29 -19 5 -60 19 -90 31 -30 12 -67 25 -82 30 -15 5 -67 28 -115 52 -83 41 -93 43 -175 43 l-87 0 -40 -39 c-53 -52 -71 -92 -71 -161 0 -112 48 -164 225 -240 68 -29 143 -59 190 -75 27 -9 77 -26 110 -38 79 -27 153 -47 245 -66 198 -41 250 -46 462 -46 191 0 225 3 333 26 66 14 140 30 165 34 48 9 184 55 265 90 123 52 338 167 411 218 144 100 329 206 414 236 117 43 193 65 325 96 117 28 485 28 640 1 84 -15 194 -41 235 -56 19 -7 64 -23 100 -35 36 -12 83 -29 105 -37 43 -15 179 -81 285 -138 80 -43 154 -47 226 -14 67 32 97 84 102 176 4 65 1 78 -23 118 -17 29 -46 58 -78 79 -76 48 -293 151 -405 192 -53 19 -113 41 -132 48 -79 30 -195 58 -370 92 -95 18 -510 28 -640 15z"/> <path d="M5350 3790 c-173 -23 -222 -32 -285 -50 -38 -12 -83 -25 -100 -30 -132 -39 -415 -184 -526 -272 -20 -15 -40 -28 -44 -28 -4 0 -24 -13 -45 -30 -21 -16 -40 -30 -43 -30 -3 0 -29 -16 -58 -36 -166 -112 -432 -213 -619 -235 -36 -4 -103 -12 -150 -18 -70 -9 -113 -7 -242 8 -86 10 -160 21 -165 24 -25 16 -175 38 -229 35 -48 -3 -71 -10 -104 -33 -23 -16 -45 -36 -48 -45 -3 -8 -12 -23 -20 -33 -24 -27 -21 -132 5 -182 24 -46 89 -97 154 -120 132 -47 511 -91 649 -74 47 5 126 14 175 18 125 12 237 38 385 89 67 23 251 101 265 112 6 4 51 29 100 56 50 26 106 59 125 74 83 63 302 202 377 240 192 97 418 145 688 144 196 0 316 -15 470 -58 94 -27 167 -32 208 -17 38 15 96 70 118 112 13 26 19 59 19 101 0 163 -131 228 -555 277 -93 11 -425 11 -505 1z"/> </g> </svg> 